<svg xmlns="http://www.w3.org/2000/svg" width="176.000000pt" height="176.000000pt" viewBox="0 0 176.000000 176.000000" preserveAspectRatio="xMidYMid meet"><g transform="translate(0.000000,176.000000) scale(0.100000,-0.100000)" fill="#000000" stroke="none"><path d="M760 1750 c-21 -7 -22 -8 -5 -9 36 -2 -6 -21 -47 -21 -42 0 -148 -36 -148 -51 0 -5 16 -9 36 -9 31 0 35 -2 24 -15 -6 -8 -9 -19 -5 -25 3 -5 0 -10 -7 -10 -16 0 -117 -62 -118 -72 0 -18 42 -17 76 2 34 19 60 26 184 47 64 10 19 -14 -57 -31 -39 -9 -84 -21 -100 -27 -33 -12 -83 -57 -83 -75 0 -21 -16 -25 -49 -13 -35 12 -72 2 -116 -33 -38 -30 -32 -42 18 -34 23 4 61 8 84 9 41 2 41 2 22 -17 -11 -10 -19 -19 -17 -21 2 -1 29 1 61 4 49 6 63 13 100 48 23 22 58 49 77 59 19 9 29 19 22 21 -27 10 2 23 48 23 60 0 59 -13 -5 -52 -29 -18 -47 -36 -51 -55 -4 -15 -14 -34 -23 -41 -14 -12 -12 -12 14 -7 34 7 98 47 133 82 27 27 37 24 47 -14 3 -15 11 -34 17 -40 14 -18 38 -16 38 2 0 8 12 22 26 31 25 17 26 16 50 -9 29 -31 46 -34 69 -11 15 16 13 20 -24 58 -43 43 -50 61 -28 69 6 3 3 6 -8 7 -18 1 -18 2 4 14 l23 13 -23 7 c-23 6 -24 7 -5 21 11 8 31 16 45 16 18 1 14 4 -14 9 -22 4 -43 6 -46 4 -4 -2 -20 3 -35 11 -29 15 -28 15 31 15 34 0 66 5 72 11 9 9 28 8 77 -5 75 -18 86 -19 86 -7 0 17 -126 70 -197 82 -75 13 -88 28 -25 30 l37 1 -40 9 c-50 10 -212 10 -245 -1z m-103 -146 c-3 -3 -12 -4 -19 -1 -8 3 -5 6 6 6 11 1 17 -2 13 -5z m194 -22 c-9 -3 -9 -7 0 -18 9 -11 7 -14 -9 -14 -27 0 -52 10 -52 21 0 5 9 9 20 9 12 0 20 7 20 16 0 14 2 14 16 3 11 -9 12 -15 5 -17z m61 -18 c-23 -17 -59 1 -42 21 9 11 17 11 36 3 22 -10 22 -12 6 -24z"></path><path d="M886 1568 c3 -5 10 -6 15 -3 13 9 11 12 -6 12 -8 0 -12 -4 -9 -9z"></path><path d="M1058 1733 c7 -3 16 -2 19 1 4 3 -2 6 -13 5 -11 0 -14 -3 -6 -6z"></path><path d="M515 1684 c-16 -9 -61 -34 -99 -56 -54 -32 -65 -43 -53 -49 11 -7 38 6 99 48 45 31 87 60 93 65 15 13 -7 9 -40 -8z"></path><path d="M1353 1559 c15 -11 25 -24 22 -29 -3 -4 2 -13 10 -20 8 -7 15 -9 15 -4 0 4 7 -1 15 -12 15 -19 15 -19 8 1 -6 18 -5 18 10 6 11 -9 17 -10 17 -2 0 8 5 8 18 0 21 -13 26 -40 7 -32 -7 2 -15 -7 -17 -21 -3 -14 -2 -26 2 -26 4 0 11 -8 14 -17 6 -15 5 -15 -13 1 -11 10 -18 28 -16 42 2 18 -3 24 -16 24 -10 0 -27 9 -38 21 l-19 21 -14 -29 c-15 -31 -65 -42 -60 -12 3 18 -23 44 -55 53 -28 9 -40 -11 -17 -30 18 -13 17 -14 -6 -5 -42 15 -135 33 -154 30 -13 -3 -4 -14 36 -44 78 -59 108 -76 127 -73 11 3 5 11 -21 28 -21 14 -38 28 -38 33 0 12 52 -18 74 -42 11 -12 30 -21 43 -21 13 0 33 -5 44 -11 17 -9 18 -13 7 -26 -11 -14 -9 -15 20 -9 35 8 40 0 21 -36 -8 -14 -8 -23 0 -31 8 -8 11 -7 12 3 1 8 5 4 9 -10 9 -29 13 -86 4 -78 -3 3 -20 2 -39 -2 -26 -6 -32 -5 -28 6 4 11 -3 11 -43 -1 -64 -19 -64 -19 -30 10 16 14 24 25 18 25 -18 0 -14 14 10 40 19 21 20 23 4 17 -11 -4 -33 -3 -50 2 -21 7 -52 6 -96 -2 -62 -12 -65 -13 -75 -49 -9 -34 -41 -68 -75 -81 -9 -3 -10 -6 -2 -6 6 -1 12 -11 12 -23 0 -12 7 -30 16 -40 12 -13 18 -44 22 -115 3 -69 10 -108 23 -133 10 -19 22 -57 26 -84 7 -45 10 -49 38 -51 17 -2 24 -1 18 2 -7 2 -13 9 -13 14 0 6 5 7 11 4 6 -4 9 2 8 17 -1 12 -1 36 -1 52 l2 30 34 -33 c19 -19 50 -56 68 -82 35 -52 66 -67 53 -26 -3 12 -9 33 -12 47 -7 32 -41 70 -63 70 -22 0 -30 9 -23 26 3 8 16 14 28 14 24 0 42 16 31 28 -4 3 -16 1 -26 -6 -24 -15 -30 -15 -30 -1 0 5 5 7 10 4 6 -3 10 1 10 11 0 12 -6 15 -22 11 -12 -3 -30 -2 -40 4 -14 7 -18 6 -18 -6 0 -18 -31 -20 -48 -3 -17 17 -15 41 2 35 8 -3 17 -1 20 6 3 7 3 -1 0 -18 l-6 -30 17 23 c9 12 21 20 26 16 6 -3 13 5 17 17 l6 24 6 -25 c4 -18 14 -26 33 -28 17 -2 25 -8 21 -15 -4 -7 6 2 22 18 26 27 27 31 11 37 -24 10 -17 19 40 57 54 36 95 39 123 11 22 -22 26 -40 10 -40 -5 0 -10 -5 -10 -11 0 -6 7 -8 16 -5 8 3 26 -1 40 -10 23 -16 24 -15 24 5 0 11 4 21 10 21 5 0 9 16 7 35 -1 19 -6 35 -12 35 -5 0 -5 4 2 8 16 10 33 57 33 92 0 30 26 48 44 30 11 -11 12 -98 4 -285 -3 -60 -7 -80 -17 -80 -8 0 -19 15 -25 33 -6 18 -15 30 -20 25 -4 -4 -47 -8 -94 -8 -63 0 -95 -5 -117 -17 -16 -9 -39 -19 -49 -23 -18 -5 -18 -6 2 -25 12 -11 25 -20 29 -20 10 0 63 -74 63 -87 0 -5 10 -19 23 -31 17 -16 36 -22 73 -22 59 0 68 -6 71 -43 2 -24 0 -27 -12 -17 -22 18 -45 5 -38 -21 6 -21 4 -22 -44 -15 -31 4 -62 2 -79 -5 -16 -6 -45 -12 -64 -13 -24 -1 -36 -6 -38 -18 -3 -15 5 -18 45 -19 l48 -1 -44 -9 c-52 -10 -49 -7 -55 -46 -5 -27 -3 -32 16 -36 l23 -4 -22 -2 c-17 -1 -23 -7 -23 -23 0 -15 -9 -27 -25 -35 -15 -6 -22 -7 -19 -1 4 7 -2 7 -17 2 -13 -5 -50 -8 -81 -6 -32 2 -58 0 -58 -3 0 -8 52 -27 80 -29 35 -2 29 -17 -17 -43 -39 -21 -40 -21 -106 -4 -53 15 -70 16 -84 6 -10 -7 -53 -15 -95 -18 -67 -5 -79 -3 -94 14 -16 18 -16 19 2 19 11 0 29 7 41 15 27 19 109 33 99 16 -4 -6 -4 -10 1 -9 4 1 18 -3 31 -10 19 -11 22 -10 22 6 0 11 -14 25 -36 35 -19 10 -32 22 -29 27 12 19 -17 10 -69 -24 -29 -18 -95 -46 -146 -60 -78 -23 -97 -25 -121 -15 -28 11 -33 20 -29 48 1 9 -4 12 -16 7 -30 -11 -79 65 -50 79 6 3 -11 3 -39 1 l-50 -5 37 16 c21 8 38 19 38 24 0 6 12 8 26 7 16 -2 29 3 32 11 4 11 -4 13 -36 9 -46 -7 -57 -1 -41 19 7 8 35 13 73 14 52 1 57 2 31 10 -16 5 -49 10 -73 11 -44 1 -61 11 -41 23 6 4 16 2 22 -4 15 -15 82 -14 106 1 15 9 28 9 59 -1 21 -7 49 -10 61 -6 17 5 32 -3 68 -35 43 -40 48 -42 94 -38 27 3 52 1 55 -3 20 -33 131 20 118 55 -5 13 76 56 104 56 10 0 27 -7 38 -14 12 -8 31 -12 43 -9 l21 5 -24 22 c-22 19 -24 28 -22 81 2 33 1 54 -1 48 -3 -7 -10 -13 -17 -13 -7 0 -23 -9 -36 -20 -13 -12 -30 -18 -37 -16 -11 5 -18 -12 -14 -37 1 -4 -18 -17 -42 -28 -27 -13 -51 -34 -62 -56 -16 -29 -23 -34 -49 -31 -37 4 -43 31 -8 36 22 3 30 26 13 36 -12 8 -52 -7 -53 -19 0 -6 -3 -17 -5 -25 -3 -8 -7 -21 -9 -28 -8 -26 -42 -12 -61 26 -10 21 -27 39 -38 40 -36 7 -85 34 -85 48 0 21 -41 63 -56 57 -7 -3 -12 -15 -11 -26 1 -16 -4 -22 -21 -23 -21 -1 -23 2 -18 27 4 21 2 29 -9 29 -35 0 -57 -55 -36 -89 14 -21 -16 -40 -48 -31 -14 3 -31 15 -36 27 -6 11 -15 18 -20 16 -10 -3 -80 54 -80 66 0 3 -6 15 -12 26 -10 17 -15 18 -32 8 -27 -17 -51 -16 -51 1 0 8 -5 16 -12 18 -8 3 -4 12 10 26 16 16 34 22 69 22 l48 0 -32 20 c-32 19 -44 40 -23 40 6 0 10 22 10 49 0 31 5 53 15 61 8 7 12 17 8 24 -3 6 3 3 14 -7 12 -10 27 -32 33 -48 15 -35 17 -35 41 -5 35 45 84 42 110 -6 8 -16 5 -20 -20 -29 -35 -12 -41 -29 -11 -29 28 0 25 -15 -7 -40 -31 -24 -57 -59 -50 -66 2 -3 21 4 42 16 l38 21 18 -20 c23 -25 23 -29 2 -54 -17 -19 -17 -20 5 -8 23 12 30 45 12 56 -6 4 -7 11 -4 17 4 6 0 14 -7 19 -10 6 -10 9 -2 9 7 0 17 -9 23 -20 16 -29 67 -52 99 -45 26 5 29 11 34 63 4 34 12 61 22 68 20 15 19 31 -4 37 -14 3 -19 17 -24 58 -3 30 -1 58 4 64 16 17 11 95 -7 102 -14 5 -15 16 -10 65 3 32 2 58 -3 58 -12 0 -35 52 -32 76 3 27 -25 52 -41 36 -7 -7 -20 -12 -30 -12 -10 0 -18 -4 -18 -10 0 -5 13 -10 29 -10 17 0 33 -5 37 -12 5 -8 -4 -9 -32 -5 -21 4 -46 7 -54 7 -13 0 -13 1 0 11 11 8 5 9 -25 4 -23 -4 -50 -17 -63 -31 -13 -13 -31 -24 -40 -24 -13 -1 -10 -6 10 -21 32 -24 38 -45 8 -29 -28 15 -25 2 5 -22 13 -10 24 -24 22 -30 -1 -6 4 -13 12 -16 10 -3 13 1 8 17 -4 18 -1 21 25 21 30 0 30 0 10 18 -24 21 -35 52 -23 70 15 25 79 19 107 -10 22 -22 24 -29 14 -47 -6 -12 -25 -24 -42 -28 l-31 -6 27 -14 c14 -7 26 -20 26 -28 0 -7 5 -17 12 -21 8 -5 9 -2 5 10 -5 12 -3 16 5 14 20 -7 21 -54 1 -77 -20 -24 -52 -27 -72 -8 -11 10 -13 8 -8 -10 2 -12 0 -24 -7 -27 -6 -2 -4 -5 4 -5 20 -1 54 -57 46 -77 -9 -23 -26 -16 -26 12 0 17 -4 23 -12 18 -10 -6 -10 -4 0 8 16 20 1 32 -28 23 -11 -4 -20 -2 -20 4 0 6 4 11 9 11 6 0 6 11 0 29 -11 31 -35 42 -75 35 -13 -2 -24 0 -24 5 0 15 21 25 29 14 4 -7 15 -7 30 -2 l23 9 -32 30 c-32 30 -55 31 -64 2 -3 -10 -4 -5 -2 9 2 18 -5 32 -20 45 -25 21 -30 44 -13 61 8 8 7 13 -2 18 -8 5 -10 4 -5 -3 10 -16 -6 -15 -28 1 -20 15 -18 44 8 116 9 23 17 56 18 72 1 17 10 36 19 45 18 16 15 57 -6 74 -22 18 -199 -185 -210 -241 -2 -12 -14 -37 -25 -57 -12 -19 -23 -48 -25 -63 -2 -14 -17 -59 -35 -98 -38 -88 -50 -222 -30 -350 13 -82 17 -90 37 -70 8 8 13 5 18 -11 5 -15 1 -26 -12 -36 -17 -15 -17 -15 3 -11 12 2 32 -2 45 -9 22 -12 23 -13 3 -14 -11 0 -28 -6 -37 -12 -15 -12 -15 -16 0 -46 16 -33 27 -39 38 -22 3 5 11 10 17 10 6 0 4 -8 -6 -19 -20 -23 -11 -51 18 -52 16 -1 17 -2 3 -6 -20 -5 -20 -8 -7 -34 6 -11 22 -19 38 -20 25 -1 25 -1 4 -7 l-22 -7 26 -38 c15 -20 33 -37 41 -37 8 0 12 -4 9 -9 -8 -12 100 -112 165 -154 96 -61 141 -81 150 -65 5 7 9 9 9 3 1 -5 5 0 10 13 6 13 26 30 45 38 20 8 33 19 30 23 -9 16 98 45 170 46 39 1 104 5 147 9 75 9 77 8 127 -24 28 -19 51 -39 51 -47 0 -7 5 -13 10 -13 6 0 8 -11 4 -27 -10 -42 -14 -46 -32 -30 -10 8 -28 18 -42 22 -20 6 -23 5 -12 -6 6 -7 12 -22 13 -34 1 -17 2 -16 9 5 l8 25 1 -28 c1 -27 3 -28 34 -22 59 13 131 44 210 90 120 70 269 220 238 240 -5 3 -12 -4 -16 -14 -4 -13 -11 -18 -22 -14 -12 5 -15 2 -10 -10 5 -14 3 -15 -19 -5 -32 15 -40 4 -20 -27 16 -24 16 -25 -5 -25 -14 0 -19 -5 -16 -14 3 -8 -4 -18 -18 -24 -21 -10 -27 -8 -40 11 -27 39 -19 74 24 96 24 14 19 26 -14 34 -11 3 -2 5 19 6 37 1 44 16 8 16 -25 0 -27 32 -3 40 12 3 21 11 21 16 0 15 18 10 37 -10 10 -10 31 -19 47 -19 16 0 35 -7 41 -16 15 -20 31 -21 38 -3 6 16 -28 98 -45 108 -6 4 -8 14 -5 24 4 9 12 13 17 10 15 -9 40 14 34 30 -3 8 1 24 9 36 9 12 13 28 10 35 -3 9 2 14 13 15 11 1 28 2 39 3 45 3 68 110 39 181 -7 18 -6 18 9 6 16 -12 17 -9 17 35 0 52 -26 120 -53 143 -13 10 -17 30 -17 79 0 61 1 64 16 46 14 -18 15 -18 8 6 -11 44 -82 183 -119 235 -20 28 -62 76 -92 107 -46 46 -66 59 -105 68 -69 14 -77 12 -45 -11z m-1172 -356 c-2 -103 8 -247 17 -239 6 6 10 36 20 129 8 65 22 92 47 83 6 -1 11 -16 11 -32 2 -58 4 -63 18 -58 9 3 15 -5 20 -27 11 -58 8 -70 -16 -64 -18 4 -28 -2 -47 -30 -13 -20 -33 -40 -43 -46 -10 -5 -18 -16 -18 -24 0 -21 -42 -45 -67 -39 -22 6 -43 49 -43 86 0 10 -5 27 -12 37 -9 15 -6 35 15 102 14 46 29 100 32 121 4 23 13 38 25 41 10 3 21 18 25 37 12 54 18 24 16 -77z m1048 53 c19 -21 21 -27 10 -44 -25 -41 -94 -55 -123 -26 -23 23 -19 50 10 73 35 28 75 27 103 -3z m80 -73 c-15 -18 -126 -73 -147 -73 -10 0 -10 -3 0 -14 7 -8 15 -12 18 -11 3 2 5 -8 5 -23 -1 -15 2 -32 6 -37 4 -6 3 -17 -3 -25 -8 -13 -9 -12 -5 2 3 9 -1 19 -9 22 -8 3 -14 1 -14 -5 0 -6 -7 -3 -16 5 -8 9 -20 16 -26 16 -22 0 -48 34 -48 63 0 28 2 29 30 23 17 -3 39 -1 48 4 28 15 156 69 166 70 5 0 2 -7 -5 -17z m74 0 c-20 -7 -15 -23 6 -23 10 0 22 -7 25 -16 4 -9 13 -14 22 -10 8 3 12 2 9 -4 -3 -6 -1 -10 6 -10 8 0 8 -4 -1 -15 -7 -8 -25 -15 -40 -15 -16 0 -30 7 -34 15 -4 10 1 15 14 15 14 0 18 5 13 17 -4 11 -8 12 -11 5 -5 -17 -22 -15 -22 3 0 8 -4 15 -8 15 -5 0 -9 7 -9 15 0 9 9 15 21 14 12 0 15 -3 9 -6z m-80 -99 c-7 -18 -23 -18 -23 0 0 8 -3 16 -7 19 -5 2 -2 2 6 0 9 -2 11 3 7 14 -5 16 -5 16 8 0 8 -11 12 -25 9 -33z m31 -3 c-6 -6 -11 1 -18 29 l-7 25 15 -25 c8 -14 12 -27 10 -29z m-104 -51 c0 -21 -23 -5 -27 19 -3 20 -1 21 12 7 8 -8 15 -20 15 -26z m20 -14 c-25 -24 -47 -42 -48 -41 -7 7 15 37 24 33 5 -1 10 7 12 19 2 14 8 20 18 16 8 -3 14 0 14 6 0 6 6 11 13 11 6 0 -8 -20 -33 -44z m-801 13 c-14 -8 -29 -3 -29 11 0 4 9 6 21 3 15 -4 17 -8 8 -14z m-19 -59 c0 -5 -8 -10 -17 -10 -15 0 -16 2 -3 10 19 12 20 12 20 0z m26 -2 c-4 -30 -36 -54 -36 -28 0 6 5 9 12 8 7 -2 13 3 14 10 2 19 4 22 8 22 2 0 3 -6 2 -12z m719 2 c-3 -5 -14 -10 -23 -9 -14 0 -13 2 3 9 27 11 27 11 20 0z m-678 -6 c-3 -3 -12 -4 -19 -1 -8 3 -5 6 6 6 11 1 17 -2 13 -5z m86 -123 c-2 -10 2 -25 10 -32 10 -9 11 -17 3 -25 -18 -19 -39 11 -31 46 4 17 10 30 15 30 4 0 6 -8 3 -19z m-391 -181 l21 -19 -29 -11 c-47 -18 -85 17 -42 38 13 6 24 11 26 11 2 1 12 -8 24 -19z m1426 -17 c-10 -2 -26 -2 -35 0 -10 3 -2 5 17 5 19 0 27 -2 18 -5z m-1458 -37 c0 -2 -7 -6 -15 -10 -8 -3 -15 -1 -15 4 0 6 7 10 15 10 8 0 15 -2 15 -4z m1367 -102 c-3 -3 -12 -4 -19 -1 -8 3 -5 6 6 6 11 1 17 -2 13 -5z m-1251 -13 c-3 -5 1 -14 9 -21 8 -7 12 -16 9 -21 -3 -5 5 -9 18 -9 22 -1 22 -1 3 -12 -19 -11 -19 -11 0 -19 14 -5 8 -8 -22 -8 -24 -1 -43 1 -43 4 0 3 9 14 21 26 20 20 20 22 3 40 -19 21 -34 25 -34 8 0 -5 5 -7 10 -4 6 3 10 2 10 -4 0 -17 -18 -22 -24 -6 -3 9 -19 16 -38 16 -32 2 -32 2 7 9 60 11 77 11 71 1z m1147 2 c-7 -2 -21 -2 -30 0 -10 3 -4 5 12 5 17 0 24 -2 18 -5z m-1236 -29 c-3 -3 -12 -4 -19 -1 -8 3 -5 6 6 6 11 1 17 -2 13 -5z m50 -60 c-3 -3 -12 -4 -19 -1 -8 3 -5 6 6 6 11 1 17 -2 13 -5z m1146 -21 c-7 -2 -19 -2 -25 0 -7 3 -2 5 12 5 14 0 19 -2 13 -5z m-1068 -23 c-11 -5 -15 -9 -10 -10 13 -1 -25 -30 -39 -30 -6 1 0 7 14 15 15 9 19 14 10 15 -13 0 -13 1 0 10 8 5 22 9 30 9 10 0 8 -3 -5 -9z"></path><path d="M1146 1233 c-10 -26 35 -46 49 -23 8 13 -13 40 -30 40 -7 0 -16 -8 -19 -17z"></path><path d="M1088 1553 c7 -3 16 -2 19 1 4 3 -2 6 -13 5 -11 0 -14 -3 -6 -6z"></path><path d="M1259 1530 c54 -25 63 -25 31 0 -14 11 -36 20 -50 20 -20 0 -17 -4 19 -20z"></path><path d="M1178 1343 c7 -3 16 -2 19 1 4 3 -2 6 -13 5 -11 0 -14 -3 -6 -6z"></path><path d="M1006 1295 c-11 -8 -16 -15 -10 -15 5 0 18 7 28 15 11 8 16 15 10 15 -5 0 -18 -7 -28 -15z"></path><path d="M842 1264 c-11 -12 -10 -15 3 -20 9 -4 19 -4 22 0 4 3 0 6 -8 6 -12 0 -12 2 0 9 7 5 9 11 5 14 -5 3 -15 -1 -22 -9z"></path><path d="M505 1240 c-9 -15 15 -42 33 -38 9 2 16 13 17 26 1 17 -4 22 -21 22 -13 0 -26 -5 -29 -10z"></path><path d="M966 1195 c4 -8 8 -15 10 -15 2 0 4 7 4 15 0 8 -4 15 -10 15 -5 0 -7 -7 -4 -15z"></path><path d="M480 1151 c0 -12 29 -23 42 -15 6 4 5 10 -3 15 -18 11 -39 11 -39 0z"></path><path d="M1290 883 c0 -5 5 -15 10 -23 8 -12 10 -11 10 8 0 12 -4 22 -10 22 -5 0 -10 -3 -10 -7z"></path><path d="M446 695 c-16 -12 -22 -35 -8 -35 4 0 16 7 26 15 11 8 28 15 38 15 10 0 18 4 18 8 0 13 -55 10 -74 -3z"></path><path d="M925 619 c-16 -6 -71 -7 -120 -4 -84 6 -93 5 -115 -15 -21 -18 -22 -20 -5 -14 11 4 80 8 152 9 73 1 136 4 139 8 4 4 17 7 28 7 17 0 18 2 6 10 -18 12 -45 11 -85 -1z"></path><path d="M981 591 c-8 -5 -20 -7 -28 -4 -7 3 -13 -2 -13 -11 0 -10 -6 -13 -16 -9 -13 5 -13 8 -2 15 9 7 8 8 -5 4 -10 -3 -24 -6 -30 -6 -7 0 -1 -6 13 -13 16 -8 24 -20 22 -33 -2 -17 -1 -17 8 -2 6 9 25 28 43 42 31 25 36 35 8 17z"></path><path d="M742 581 c-11 -7 -11 -9 0 -13 7 -3 19 1 26 8 10 11 10 14 0 14 -7 0 -19 -4 -26 -9z"></path><path d="M794 562 c4 -7 15 -16 25 -21 13 -7 18 -6 18 5 0 7 -4 14 -8 14 -4 0 -15 3 -25 7 -12 4 -15 3 -10 -5z"></path><path d="M1180 505 c-22 -13 -23 -14 -5 -14 11 0 31 6 45 14 22 13 23 14 5 14 -11 0 -31 -6 -45 -14z"></path><path d="M618 483 c7 -3 16 -2 19 1 4 3 -2 6 -13 5 -11 0 -14 -3 -6 -6z"></path><path d="M1205 420 c-8 -13 35 -13 55 0 11 7 7 10 -17 10 -17 0 -35 -4 -38 -10z"></path><path d="M1125 410 c3 -5 12 -7 20 -3 21 7 19 13 -6 13 -11 0 -18 -4 -14 -10z"></path><path d="M690 400 c0 -5 7 -10 16 -10 8 0 12 5 9 10 -3 6 -10 10 -16 10 -5 0 -9 -4 -9 -10z"></path><path d="M480 390 c0 -5 4 -10 9 -10 6 0 13 5 16 10 3 6 -1 10 -9 10 -9 0 -16 -4 -16 -10z"></path><path d="M610 390 c-18 -12 -2 -12 25 0 13 6 15 9 5 9 -8 0 -22 -4 -30 -9z"></path><path d="M1535 390 c3 -5 14 -10 23 -10 15 0 15 2 2 10 -20 13 -33 13 -25 0z"></path><path d="M988 336 c-16 -5 -28 -13 -28 -18 0 -10 -2 -10 43 6 22 7 33 15 25 18 -7 2 -25 0 -40 -6z"></path><path d="M550 309 c-11 -7 -4 -8 25 -3 50 8 58 14 19 14 -16 0 -36 -5 -44 -11z"></path><path d="M705 160 c-3 -6 1 -7 9 -4 18 7 21 14 7 14 -6 0 -13 -4 -16 -10z"></path><path d="M932 34 c-7 -14 -8 -23 -2 -19 15 9 32 45 22 45 -5 0 -14 -12 -20 -26z"></path></g></svg>