<svg xmlns="http://www.w3.org/2000/svg" width="176.000000pt" height="176.000000pt" viewBox="0 0 176.000000 176.000000" preserveAspectRatio="xMidYMid meet"><g transform="translate(0.000000,176.000000) scale(0.100000,-0.100000)" fill="#000000" stroke="none"><path d="M948 1734 c-4 -3 -35 -5 -69 -5 -79 0 -136 -24 -175 -73 l-29 -36 -5 36 -5 36 -29 -28 c-16 -16 -35 -44 -43 -63 -14 -33 -14 -33 -35 -15 l-21 19 6 -60 c5 -45 2 -63 -9 -76 -17 -19 -29 -93 -39 -240 l-7 -96 -103 1 c-57 1 -107 -2 -111 -6 -13 -14 -6 -250 10 -333 9 -44 28 -119 42 -167 26 -83 29 -88 55 -88 57 0 58 4 23 93 -33 84 -57 186 -68 293 l-7 61 43 11 c24 6 62 14 85 17 35 6 42 4 47 -13 6 -19 119 -82 148 -82 8 0 20 -16 27 -35 7 -19 26 -48 43 -64 l31 -29 -58 -17 c-66 -19 -174 -71 -222 -107 l-32 -24 20 -44 c24 -54 22 -52 42 -44 14 5 13 9 -4 39 l-20 33 28 21 c34 27 178 98 217 107 39 9 26 -12 -20 -31 -41 -17 -37 -35 13 -59 54 -26 33 -29 -31 -5 -32 11 -60 18 -64 14 -11 -11 57 -63 91 -71 20 -4 25 -9 17 -14 -7 -4 -38 -2 -69 6 -75 18 -83 17 -41 -5 31 -17 51 -19 185 -14 132 5 376 -8 442 -24 16 -4 25 2 36 24 33 65 32 68 -35 110 -61 39 -164 84 -222 99 l-29 7 27 20 c16 11 36 40 47 64 10 23 24 43 32 43 7 0 32 9 55 20 22 11 44 20 47 20 8 0 5 -74 -4 -89 -5 -7 -28 -23 -52 -35 -23 -12 -45 -28 -47 -36 -6 -17 12 -10 66 24 33 21 42 33 52 75 7 28 13 51 14 51 2 0 27 -8 57 -19 79 -27 129 -53 129 -66 0 -29 -42 -171 -69 -237 -17 -40 -27 -75 -23 -79 4 -4 27 -9 52 -11 l45 -3 42 80 c23 44 51 104 62 133 l21 53 -34 20 c-31 18 -33 22 -26 58 l7 40 -71 30 c-39 17 -93 39 -121 49 l-50 19 3 74 c2 41 -2 137 -7 214 l-11 139 30 31 c37 38 37 45 3 46 -23 0 -19 4 21 18 l49 17 -44 36 c-56 46 -154 98 -184 98 -36 0 -39 17 -5 25 59 13 28 25 -63 25 -52 0 -96 -3 -99 -6z m-123 -80 c-14 -60 -35 -94 -35 -57 0 12 4 33 10 47 5 14 6 26 3 26 -4 0 -36 -28 -72 -62 -52 -52 -60 -57 -45 -29 22 39 120 131 139 131 11 0 11 -10 0 -56z m145 44 c-23 -10 -21 -12 30 -19 65 -9 147 -35 175 -56 11 -8 13 -13 5 -10 -95 35 -133 42 -232 42 -60 0 -108 3 -108 7 0 17 78 46 125 47 l30 0 -25 -11z m-324 -123 c6 -19 9 -35 6 -35 -10 0 -31 36 -32 53 0 29 14 19 26 -18z m381 3 c24 -27 53 -81 53 -100 0 -7 -10 3 -21 22 -12 19 -35 50 -52 68 -21 22 -26 32 -16 32 9 0 25 -10 36 -22z m-164 -75 c3 -21 8 -48 12 -60 5 -17 3 -23 -8 -23 -18 0 -27 29 -27 88 0 52 16 48 23 -5z m-263 22 c31 -18 43 -19 34 -2 -4 6 5 1 19 -12 15 -14 25 -27 22 -29 -7 -8 -92 27 -105 44 -16 18 -2 18 30 -1z m-48 -67 c-5 -7 -12 -24 -15 -38 l-4 -25 -2 26 c0 14 4 30 11 37 16 16 23 15 10 0z m535 -20 c-3 -8 -6 -5 -6 6 -1 11 2 17 5 13 3 -3 4 -12 1 -19z m-33 -37 c3 -21 3 -53 -1 -71 -6 -30 -4 -32 17 -25 22 7 23 6 16 -31 -4 -22 -7 -48 -7 -60 0 -20 -6 -22 -90 -27 -50 -3 -93 -8 -96 -10 -2 -3 -1 -17 3 -31 6 -25 8 -26 24 -11 15 14 20 14 55 -1 21 -9 51 -14 67 -12 23 4 27 1 23 -16 -2 -12 -9 -55 -16 -96 -14 -93 -24 -118 -55 -151 -63 -66 -144 -73 -239 -21 -45 25 -51 32 -68 87 -10 33 -30 110 -43 170 -37 157 -22 263 41 313 36 29 81 28 140 -3 34 -19 51 -23 60 -15 30 25 92 49 126 50 35 0 37 -2 43 -39z m-453 1 c-6 -12 -11 -32 -11 -46 0 -14 -5 -26 -11 -26 -14 0 -5 66 12 86 16 20 23 10 10 -14z m626 -19 c-3 -10 -5 -2 -5 17 0 19 2 27 5 18 2 -10 2 -26 0 -35z m-700 -15 c-3 -8 -6 -5 -6 6 -1 11 2 17 5 13 3 -3 4 -12 1 -19z m33 -144 c0 -15 7 -74 16 -131 14 -98 14 -126 -2 -110 -4 3 -15 39 -25 79 -16 65 -18 67 -13 23 3 -27 8 -59 11 -70 4 -14 2 -17 -6 -10 -30 29 -41 198 -14 227 22 25 33 23 33 -8z m680 -65 c0 -70 -18 -159 -32 -159 -6 0 -7 8 -4 17 4 9 9 38 12 63 3 37 1 33 -13 -24 -10 -38 -24 -71 -32 -74 -10 -3 -12 2 -8 19 3 13 10 60 16 104 22 157 20 149 42 129 15 -13 19 -30 19 -75z m-179 -9 c-13 -11 -33 -20 -45 -20 -17 0 -18 2 -6 10 8 5 11 10 5 11 -17 1 28 18 50 18 19 0 18 -1 -4 -19z m-414 -176 c-3 -3 -12 -4 -19 -1 -8 3 -5 6 6 6 11 1 17 -2 13 -5z m483 2 c0 -3 -4 -8 -10 -11 -5 -3 -10 -1 -10 4 0 6 5 11 10 11 6 0 10 -2 10 -4z m-306 -241 c34 -28 52 -35 85 -35 22 0 41 -4 41 -8 0 -14 -48 -32 -85 -32 -50 0 -118 29 -111 47 4 8 9 26 12 39 3 13 8 24 11 24 3 0 24 -16 47 -35z"></path><path d="M730 1301 c-45 -19 -86 -61 -59 -61 8 0 44 8 81 17 51 13 66 21 65 34 -1 10 -4 16 -8 13 -4 -2 -10 0 -14 6 -8 13 -11 12 -65 -9z m57 -7 c-3 -3 -12 -4 -19 -1 -8 3 -5 6 6 6 11 1 17 -2 13 -5z"></path><path d="M899 1254 c-11 -14 -10 -18 6 -30 11 -8 25 -12 32 -10 6 3 39 8 73 12 58 6 60 7 44 25 -23 25 -135 27 -155 3z m87 -5 c-26 -6 -43 -6 -50 1 -7 7 6 10 40 9 l49 -1 -39 -9z"></path><path d="M650 1186 c0 -4 10 -20 22 -36 15 -21 30 -30 47 -29 21 1 22 2 6 6 -24 6 -45 22 -45 34 0 15 20 10 47 -11 32 -25 65 -27 56 -4 -5 13 -2 15 18 9 13 -4 29 -14 36 -22 10 -13 13 -12 19 11 3 15 4 30 0 33 -8 9 -206 17 -206 9z"></path><path d="M861 1093 c0 -6 -4 -20 -7 -30 -5 -14 -4 -15 5 -7 7 7 11 20 8 30 -3 11 -5 14 -6 7z"></path><path d="M888 1070 c2 -17 13 -35 24 -41 18 -10 18 -11 -6 -30 -23 -18 -30 -19 -60 -8 -24 9 -33 17 -29 28 5 13 3 13 -13 -1 -26 -25 -9 -38 59 -45 64 -6 107 2 107 20 0 7 -16 27 -35 44 -19 17 -35 38 -35 47 0 9 -4 16 -8 16 -5 0 -7 -14 -4 -30z"></path><path d="M973 949 c-7 -7 -29 -15 -50 -19 l-38 -8 33 -1 c18 0 42 4 53 9 26 15 26 -9 -2 -44 -11 -14 -16 -26 -11 -26 15 0 29 22 40 63 11 39 -1 50 -25 26z"></path><path d="M782 920 c10 -15 10 -22 0 -32 -16 -16 -15 -28 1 -28 18 0 36 35 30 59 -3 12 -13 21 -24 21 -17 0 -17 -3 -7 -20z"></path><path d="M838 933 c6 -2 18 -2 25 0 6 3 1 5 -13 5 -14 0 -19 -2 -12 -5z"></path><path d="M888 853 c7 -3 16 -2 19 1 4 3 -2 6 -13 5 -11 0 -14 -3 -6 -6z"></path><path d="M863 833 c9 -2 25 -2 35 0 9 3 1 5 -18 5 -19 0 -27 -2 -17 -5z"></path><path d="M545 570 c3 -5 14 -10 23 -10 15 0 15 2 2 10 -20 13 -33 13 -25 0z"></path><path d="M610 540 c-149 -13 -360 -41 -365 -50 -3 -4 8 -62 22 -130 l27 -122 28 6 c209 42 811 41 1079 0 l36 -6 23 98 c33 145 33 156 -10 165 -178 37 -616 57 -840 39z m148 -70 c2 -29 -3 -41 -33 -70 -40 -39 -43 -50 -15 -50 11 0 20 5 20 10 0 6 7 10 15 10 10 0 15 -10 15 -30 l0 -30 -65 0 c-60 0 -65 2 -65 22 0 13 20 42 47 70 33 33 44 51 37 58 -8 8 -19 8 -38 0 -40 -15 -46 -13 -46 14 0 28 16 35 80 33 44 -2 45 -3 48 -37z m162 -60 l0 -100 -65 0 -65 0 0 93 c0 52 3 97 7 100 3 4 33 7 65 7 l58 0 0 -100z m72 63 c-3 -31 -1 -33 26 -33 25 0 30 5 36 30 4 21 11 30 24 30 16 0 20 -10 25 -52 4 -28 2 -56 -2 -62 -5 -6 -11 -24 -13 -41 -2 -24 -8 -31 -30 -33 -20 -2 -28 1 -28 12 0 8 5 18 10 21 22 14 10 43 -20 47 -28 4 -29 3 -32 -36 -3 -35 -7 -42 -27 -44 -24 -4 -24 -3 -18 59 4 34 7 80 7 101 0 35 2 39 23 36 18 -2 21 -8 19 -35z m-439 -53 c5 -41 13 -78 19 -81 23 -14 -1 -39 -37 -39 -28 0 -35 4 -35 20 0 11 5 20 10 20 6 0 8 10 6 23 -3 12 -8 48 -11 80 -6 57 -6 59 17 55 21 -3 24 -10 31 -78z m701 64 c27 -10 18 -27 -39 -77 -30 -27 -55 -53 -55 -58 0 -6 17 -10 38 -9 55 3 62 1 62 -14 0 -29 -28 -39 -87 -30 -52 8 -58 12 -61 35 -2 18 9 38 38 72 l42 47 -35 0 c-30 0 -34 3 -30 20 5 17 14 20 58 20 30 0 60 -3 69 -6z"></path><path d="M830 450 c0 -15 7 -20 25 -20 18 0 25 5 25 20 0 15 -7 20 -25 20 -18 0 -25 -5 -25 -20z"></path><path d="M830 370 c0 -15 7 -20 25 -20 18 0 25 5 25 20 0 15 -7 20 -25 20 -18 0 -25 -5 -25 -20z"></path><path d="M858 248 c8 -8 17 -8 34 0 22 10 21 11 -11 11 -27 1 -32 -2 -23 -11z"></path><path d="M551 241 c-11 -7 -4 -21 35 -67 77 -90 173 -167 198 -159 12 4 43 13 70 21 79 22 178 83 278 170 28 25 33 34 21 38 -30 12 -81 6 -94 -11 -23 -27 -160 -113 -182 -113 -23 0 -71 28 -149 87 -50 38 -62 43 -110 43 -29 0 -59 -4 -67 -9z"></path></g></svg>