<svg xmlns="http://www.w3.org/2000/svg" width="176.000000pt" height="176.000000pt" viewBox="0 0 176.000000 176.000000" preserveAspectRatio="xMidYMid meet"><g transform="translate(0.000000,176.000000) scale(0.100000,-0.100000)" fill="#000000" stroke="none"><path d="M1208 1636 c-80 -70 -509 -518 -581 -606 -56 -68 -107 -158 -138 -241 -22 -59 -24 -79 -23 -239 0 -151 23 -418 41 -500 4 -17 16 27 37 131 34 166 30 158 141 314 20 28 52 75 73 105 20 30 68 98 107 150 79 107 199 281 232 337 25 42 29 73 11 73 -7 0 -114 -103 -238 -230 -208 -212 -281 -279 -216 -197 33 40 29 34 106 147 35 52 108 156 162 230 53 74 107 150 120 168 13 18 28 39 33 45 28 34 174 250 203 300 23 40 29 77 13 77 -6 0 -43 -29 -83 -64z"></path></g></svg>